<?xml version="1.0" encoding="UTF-8"?>
<!DOCTYPE svg PUBLIC "-//W3C//DTD SVG 1.1//EN" "http://www.w3.org/Graphics/SVG/1.1/DTD/svg11.dtd">
<!-- Creator: CorelDRAW 2021 (64 Bit) -->
<svg xmlns="http://www.w3.org/2000/svg" xml:space="preserve" width="215.284mm" height="209.999mm" version="1.1" style="shape-rendering:geometricPrecision; text-rendering:geometricPrecision; image-rendering:optimizeQuality; fill-rule:evenodd; clip-rule:evenodd"
viewBox="0 0 4765.2 4648.22"
 xmlns:xlink="http://www.w3.org/1999/xlink"
 xmlns:xodm="http://www.corel.com/coreldraw/odm/2003">
 <defs>
  <style type="text/css">
   <![CDATA[
    .fil0 {fill:white;fill-rule:nonzero}
   ]]>
  </style>
 </defs>
 <g id="Camada_x0020_1">
  <metadata id="CorelCorpID_0Corel-Layer"/>
  <path class="fil0" d="M2382.78 0.15c-1316.37,0 -2382.78,1067.36 -2382.78,2382.78 0,1053.34 682.7,1946.16 1628.76,2261.15 119.61,22.52 162.79,-51.22 162.79,-114.99 0,-56.57 -1.35,-206.24 -2.25,-404.92 -663.17,143.59 -802.87,-320.32 -802.87,-320.32 -108.58,-274.62 -265.23,-348.35 -265.23,-348.35 -215.63,-147.3 17.11,-144.14 17.11,-144.14 238.87,16.21 364.57,244.96 364.57,244.96 212.53,364.57 557.57,259.14 694.13,197.79 20.83,-153.55 82.96,-259.14 150.56,-317.96 -528.98,-59.72 -1085.2,-264.49 -1085.2,-1177.56 0,-260.78 92.31,-473.15 244.96,-639.92 -26.34,-59.72 -107.05,-302.48 20.99,-630.69 0,0 199.43,-63.6 655.29,244.4 190.75,-52.86 393.33,-79.25 595.67,-80.55 202.52,1.35 404.92,27.87 595.67,80.55 453.17,-308 652.42,-244.4 652.42,-244.4 127.95,328.21 47.22,570.81 23.98,630.69 151.19,166.77 243.5,379.32 243.5,639.92 0,915.16 -556.95,1116.96 -1086.56,1175.15 82.8,71.31 160.41,218.06 160.41,440.66 0,318.7 -2.99,575.47 -2.99,653.03 0,61.97 41.71,136.43 164.41,112.46 953.1,-311.71 1635.07,-1205.27 1635.07,-2257.1 0,-1315.47 -1066.46,-2382.78 -2382.78,-2382.78l0.34 0.16 0.01 -0.02z"/>
 </g>
</svg>
