<?xml version="1.0" encoding="utf-8"?>
<!-- Generator: Adobe Illustrator 26.0.3, SVG Export Plug-In . SVG Version: 6.00 Build 0)  -->
<svg version="1.1" id="Layer_1" xmlns="http://www.w3.org/2000/svg" xmlns:xlink="http://www.w3.org/1999/xlink" x="0px" y="0px"
	 viewBox="0 0 291.3 291.3" style="enable-background:new 0 0 291.3 291.3;" xml:space="preserve">
<path d="M145.7,0C65.2,0,0,65.2,0,145.7s65.2,145.7,145.7,145.7s145.7-65.2,145.7-145.7S226.1,0,145.7,0z M95.6,72.8
	c7.5,0,13.7,6.1,13.7,13.7c0,7.5-6.1,13.7-13.7,13.7c-7.5,0-13.7-6.1-13.7-13.7S88.1,72.8,95.6,72.8z M109.4,200.1H82.1v-90.9h27.3
	V200.1z M218.6,200.1h-27.3v-49.6c0-10.2-3-20.3-14.9-20.3s-21.5,10.2-21.5,20.6v49.3h-27.4v-91.2h27.4v12.7
	c8.4-10.7,20.2-15.5,33.5-15.5c13.2,0,30.2,6.6,30.2,42.5V200.1z"/>
</svg>
