<?xml version="1.0" encoding="UTF-8"?>
<!DOCTYPE svg PUBLIC "-//W3C//DTD SVG 1.1//EN" "http://www.w3.org/Graphics/SVG/1.1/DTD/svg11.dtd">
<!-- Creator: CorelDRAW 2021 (64 Bit) -->
<svg xmlns="http://www.w3.org/2000/svg" xml:space="preserve" width="147.524mm" height="99.7318mm" version="1.1" style="shape-rendering:geometricPrecision; text-rendering:geometricPrecision; image-rendering:optimizeQuality; fill-rule:evenodd; clip-rule:evenodd"
viewBox="0 0 2886.28 1951.23"
 xmlns:xlink="http://www.w3.org/1999/xlink"
 xmlns:xodm="http://www.corel.com/coreldraw/odm/2003">
 <defs>
  <style type="text/css">
   <![CDATA[
    .fil1 {fill:#00BAFD}
    .fil0 {fill:#FEFEFE;fill-rule:nonzero}
   ]]>
  </style>
 </defs>
 <g id="Camada_x0020_1">
  <metadata id="CorelCorpID_0Corel-Layer"/>
  <path class="fil0" d="M893.94 265.11l-12.11 157.47 -4.85 0c-55.72,-96.9 -162.31,-184.12 -341.58,-184.12 -283.44,0 -535.39,234.99 -535.39,622.61 0,334.32 208.34,576.57 501.48,576.57 155.05,0 276.17,-70.26 344.01,-174.43l4.84 0 0 101.75c0,254.37 -145.35,356.12 -339.16,356.12 -142.93,0 -268.91,-46.03 -344.01,-89.64l-65.41 225.3c101.75,62.99 261.64,94.48 411.84,94.48 162.31,0 331.89,-33.92 455.45,-142.93 123.55,-111.44 174.43,-288.29 174.43,-535.39l0 -668.63c0,-162.31 4.85,-259.22 9.69,-339.16l-259.22 0zm-48.45 663.79c0,33.92 -4.84,75.1 -12.11,106.59 -33.92,106.59 -130.82,179.27 -242.26,179.27 -186.54,0 -288.29,-162.31 -288.29,-363.39 0,-239.84 123.55,-385.19 290.71,-385.19 125.98,0 210.77,82.37 242.26,191.38 7.27,24.23 9.69,53.3 9.69,79.95l0 191.38z"/>
  <path class="fil0" d="M2639.12 1388.13l247.14 0 -80.32 -1388.13 -329.53 0 -191.54 556.07c-53.55,162.7 -100.92,333.65 -137.99,483.99l-6.18 0c-35.01,-154.47 -78.26,-319.23 -127.69,-481.93l-181.24 -558.14 -333.64 0 -92.68 1388.13 236.85 0 30.89 -558.14c10.3,-189.48 18.54,-409.85 24.71,-591.09l4.12 0c37.07,173 86.5,362.48 140.05,539.6l185.36 593.15 195.66 0 201.84 -601.39c61.79,-175.06 119.45,-362.48 164.76,-531.36l6.18 0c-2.06,187.42 8.24,403.67 16.48,582.85l26.77 566.37z"/>
  <polygon class="fil1" points="1405.45,1470.44 2886.28,1470.44 2886.28,1557.05 1405.45,1557.05 "/>
  <path class="fil0" d="M1532.38 1935.48l0 -42.27 -42.31 0 0 -42.35 -42.35 0 0 -42.31 -42.27 0 0 -42.27 42.27 0 0 -42.35 42.35 0 0 -42.31 42.31 0 0 -42.27 84.62 0 0 42.27 -42.35 0 0 42.31 -42.27 0 0 42.35 -42.31 0 0 42.27 42.31 0 0 42.31 42.27 0 0 42.35 42.35 0 0 42.27 -84.62 0zm423.05 -42.27l0 -169.28 42.35 0 0 169.28 -42.35 0zm-169.19 42.27l0 -253.85 169.19 0 0 42.31 -84.58 0 0 169.28 84.58 0 0 42.27 -169.19 0zm253.85 0l0 -253.85 211.54 0 0 42.31 -126.93 0 0 42.35 84.58 0 0 42.27 -84.58 0 0 84.66 126.93 0 0 42.27 -211.54 0zm338.47 0l0 -42.27 -42.35 0 0 -42.35 -42.27 0 0 -169.23 84.62 0 0 169.23 84.58 0 0 42.35 -42.27 0 0 42.27 -42.31 0zm84.58 -84.62l0 -169.23 42.35 0 0 169.23 -42.35 0zm211.59 84.62l0 -42.27 42.27 0 0 -42.35 42.35 0 0 -42.31 42.31 0 0 -42.27 -42.31 0 0 -42.35 -42.35 0 0 -42.31 -42.27 0 0 -42.27 84.62 0 0 42.27 42.31 0 0 42.31 42.27 0 0 42.35 42.35 0 0 42.27 -42.35 0 0 42.31 -42.27 0 0 42.35 -42.31 0 0 42.27 -84.62 0z"/>
 </g>
</svg>
